settings
08 1
styles
030 00 010 350 010 010 100
025 -0 010 300 010 010 100
040 00 010 200 010 010 100
melody
B5  0200 2
D6  0100 0
B5  0100 0
F5# 0200 2
B5  0100 0
F5# 0100 0
D5  0200 2
F5# 0100 0
D5  0100 0
B4  0400 2
F4# 0100 2
B4  0100 0
D5  0100 2
B4  0100 0
C5# 0100 2
B4  0100 0
C5# 0100 2
B4  0100 0
A4# 0100 2
C5# 0100 0
E5  0100 2
C5# 0100 0
D5  0200 2
B4  0200 0
B5  0200 2
D6  0100 0
B5  0100 0
F5# 0200 2
B5  0100 0
F5# 0100 0
D5  0200 2
F5# 0100 0
D5  0100 0
B4  0400 2
D5  0200 2
D5  0200 0
D5  0200 2
D5  0200 0
B5  0200 2
D5  0200 0
D5  0050 0
E5  0050 0
C5# 0050 2
D5  0050 0
C5# 0200 2
F5# 0200 2
F5# 0200 0
F5# 0200 0
F5# 0200 2
D6  0200 2
F5# 0200 0
F5# 0050 2
G5  0050 0
F5  0050 0
F5# 0050 0
F5  0200 2
C5# 0100 0
F5# 0100 0
A5  0100 0
F5# 0100 0
G5# 0100 0
F5# 0100 0
G5# 0100 0
F5# 0100 0
F5  0100 0
G5# 0100 0
B5  0100 0
G5# 0100 0
A5  0100 0
G5# 0100 0
A5  0100 0
G5# 0100 0
F5# 0100 0
A5  0100 0
F5# 0100 0
F5  0100 0
F5# 0100 0
B5  0100 0
F5# 0100 0
F5  0100 0
F5# 0100 0
C6# 0100 0
F5# 0100 0
F5  0100 0
F5# 0100 0
D6  0100 0
F5# 0100 0
F5  0100 0
F5# 0100 0
D6  0100 0
C6# 0100 0
B5  0100 0
C6# 0100 0
A5  0100 0
G5# 0100 0
F5# 0100 0
A5  0200 2
G5# 0050 0
A5  0050 0
F5# 0050 0
G5# 0050 0
F5# 0400 2
F5# 0200 2
A5  0100 0
F5# 0100 0
C5# 0200 2
F5# 0100 0
C5# 0100 0
A4  0200 2
C5# 0100 0
A4  0100 0
F4# 0400 2
C5  0200 2
B4  0200 0
E5  0200 2
D5# 0100 0
F5# 0100 0
A5  0200 2
G5  0100 0
F5# 0100 0
G5  0200 2
E5  0200 0
G5  0200 2
B5  0100 0
G5  0100 0
E5  0200 2
G5  0100 0
E5  0100 0
C5# 0200 2
E5  0100 0
C5# 0100 0
A4  0400 2
A4  0100 2
D5  0100 0
F5# 0100 2
D5  0100 0
E5  0100 2
D5  0100 0
E5  0100 2
D5  0100 0
C5# 0100 0
E5  0100 0
G5  0100 2
E5  0100 0
F5# 0100 0
E5  0100 2
F5# 0100 0
E5  0100 0
D5  0100 2
F5# 0100 0
D5  0100 2
C5# 0100 0
D5  0100 2
G5  0100 0
D5  0100 0
C5# 0100 2
D5  0100 0
A5  0100 2
D5  0100 0
C5# 0100 2
D5  0100 0
B5  0100 0
D5  0100 2
C5# 0100 0
D5  0100 0
B5  0100 0
A5  0100 2
G5  0100 0
A5  0100 0
F5# 0100 0
E5  0100 0
D5  0100 0
F5# 0200 2
E5  0050 0
F5# 0050 0
D5  0050 0
E5  0050 0
D5  0400 2
F5# 0200 2
F5# 0200 0
F5# 0200 2
F5# 0200 0
D6  0200 2
F5# 0200 2
F5# 0050 0
G5  0050 0
E5  0050 0
F5# 0050 0
E5  0200 2
E5  0200 0
E5  0200 2
E5  0200 0
E5  0200 2
C6# 0200 0
E5  0200 2
E5  0050 0
F5# 0050 0
D5  0050 0
E5  0050 0
D5  0200 2
B5  0200 2
D6  0100 0
B5  0066 0
A5  0033 0
G5  0600 2
B5  0050 0
A5  0050 0
G5  0050 0
F5# 0050 0
E5  0600 0
G5  0050 0
F5# 0050 0
E5  0050 0
D5  0050 0
C5  0100 2
E5  0100 0
G5  0100 2
E5  0100 0
C5  0100 2
B4  0100 0
C5  0100 2
B4  0100 0
A4# 0200 2
F4# 0200 0
G4  0200 2
F4# 0200 0
B4  0200 2
A4# 0100 0
C5# 0100 0
E5  0200 2
D5  0100 0
C5# 0100 0
D5  0200 2
B4  0050 0
C5# 0050 0
D5  0050 0
E5  0050 0
F5# 0200 2
D5  0100 0
F5# 0100 0
B5  0200 2
F5# 0200 0
E5  0100 0
D5  0100 0
C5# 0100 2
D5  0066 2
C5# 0033 0
B4  0400 2
harmony
B2  0200 1
B2  0200 1
D3  0200 1
B2  0200 1
F3# 0200 1
D3  0200 1
B3  0200 1
F3# 0200 1
D3  0200 1
B2  0200 1
E3  0200 1
C3# 0200 1
F3# 0200 1
F2# 0200 1
B2  0100 1
C3# 0100 1
D3  0100 1
C3# 0100 1
B2  0200 1
B2  0200 1
D3  0200 1
B2  0200 1
F3# 0200 1
D3  0200 1
B3  0200 1
F3# 0200 1
B3  0200 1
D4  0100 1
B3  0100 1
G3# 0200 1
B3  0100 1
G3# 0100 1
E3  0200 1
G3# 0100 1
E3  0100 1
A3  0200 1
C4# 0100 1
A3  0100 1
D4  0200 1
F4# 0100 1
D4  0100 1
B3  0200 1
D4  0100 1
B3  0100 1
G3# 0200 1
B3  0100 1
G3# 0100 1
C4# 0100 1
D4  0100 1
C4# 0100 1
B3  0100 1
A3  0200 1
F3# 0200 1
B3  0200 1
G3# 0200 1
C4# 0200 1
C3# 0200 1
F3# 0200 1
F2# 0200 1
F3# 0200 1
A3  0200 1
D3  0200 1
B3  0200 1
C3# 0200 1
C4# 0200 1
B2  0200 1
D4  0200 1
B3  0200 1
G3# 0200 1
A3  0200 1
B3  0200 1
C4# 0200 1
C3# 0200 1
F3# 0400 1
F2# 0200 1
F2# 0200 1
A2  0200 1
F2# 0200 1
C3# 0200 1
A2  0200 1
F3# 0200 1
A3  0100 1
F3# 0100 1
D3# 0200 1
F3# 0100 1
D3# 0100 1
B2  0200 1
B2  0200 1
B2  0200 1
B2  0200 1
E3  0200 1
B3  0100 1
G3  0100 1
E3  0200 1
G3  0100 1
E3  0100 1
C3# 0200 1
A2  0200 1
E3  0200 1
C3# 0200 1
G3  0200 1
E3  0200 1
F3# 0200 1
B3  0200 1
G3  0200 1
E3  0200 1
A3  0200 1
A2  0200 1
D3  0200 1
D2  0200 1
C3  0200 1
F3# 0200 1
B2  0200 1
G3  0200 1
A2  0200 1
A3  0200 1
G2  0200 1
B3  0200 1
G3  0200 1
E3  0200 1
F3# 0200 1
G3  0200 1
A3  0200 1
A2  0200 1
D3  0200 1
A2  0100 1
F2# 0100 1
D2  0200 1
D4  0100 1
A3  0100 1
F3# 0200 1
A3  0100 1
F3# 0100 1
D3  0200 1
F3# 0100 1
D3  0100 1
A3  0200 1
E3  0100 1
C3# 0100 1
A2# 0200 1
E4  0100 1
C4# 0100 1
A3# 0200 1
C4# 0100 1
A3# 0100 1
F3# 0200 1
A3# 0100 1
F3# 0100 1
B3  0200 1
F3# 0200 1
D3  0200 1
B2  0200 1
E3  0200 1
E3  0200 1
E3  0200 1
E2  0200 1
E3  0200 1
E3  0200 1
E3  0200 1
E2  0200 1
E3  0200 1
E3  0200 1
E3  0200 1
E2  0200 1
E3  0200 1
E4  0100 1
C4# 0100 1
A3# 0200 1
C4# 0100 1
A3# 0100 1
F3# 0200 1
F3# 0200 1
F3# 0200 1
F3# 0200 1
B3  0200 1
D4  0100 1
B3  0100 1
F3# 0200 1
B3  0100 1
F3# 0100 1
D3  0200 1
B2  0100 1
D3  0100 1
F3# 0200 1
F2# 0200 1
B2  0400 1
