settings
12
styles
020 01 020 600 007 001 100
040 01 020 600 007 001 100
020 -1 020 600 007 001 100
010 -1 020 600 007 001 100
melody
A4  Q  0
C5  H  1
D5  Q  0
E5  Q. 1
F5  E  0
E5  Q  0
D5  H  1
B4  Q  0
G4  Q. 1
A4  E  0
B4  Q  0
C5  H  1
A4  Q  0
A4  Q. 1
G4# E  0
A4  Q  0
B4  H  1
G4# Q  0
E4  H  1
A4  Q  0
C5  H  1
D5  Q  0
E5  Q. 1
F5  E  0
E5  Q  0
D5  H  1
B4  Q  0
G4  Q. 1
A4  E  0
B4  Q  0
C5  Q. 1
B4  E  0
A4  Q  0
G4# Q. 1
E4  E  0
G4# Q  0
A4  H. 1
A4  H. 1
G5  H. 1
G5  Q. 1
F5# E  0
E5  Q  0
D5  H  1
B4  Q  0
G4  Q. 1
A4  E  0
B4  Q  0
C5  H  1
A4  Q  0
A4  Q. 1
G4# E  0
A4  Q  0
B4  H  1
G4# Q  0
E4  H. 1
G5  H. 1
G5  Q. 1
F5# E  0
E5  Q  0
D5  H  1
B4  Q  0
G4  Q. 1
A4  E  0
B4  Q  0
C5  Q. 1
B4  E  0
A4  Q  0
G4# Q. 1
F4# E  0
G4# Q  0
A4  H. 1
A4  H  1
harmony
S   Q  2
A4  Q  3
C5  Q  2
E5  Q  2
A4  Q  3
C5  Q  2
E5  Q  2
G4  Q  3
B4  Q  2
D5  Q  2
G4  Q  3
B4  Q  2
D5  Q  2
F4  Q  3
A4  Q  2
C5  Q  2
F4  Q  3
A4  Q  2
C5  Q  2
E4  Q  3
G4# Q  2
B4  Q  2
E4  Q  3
G4# Q  2
B4  Q  2
A4  Q  3
C5  Q  2
E5  Q  2
C5  Q  3
E5  Q  2
G5  Q  2
G5  Q  3
B4  Q  2
D5  Q  2
G5  Q  3
B4  Q  2
D5  Q  2
F4  Q  3
A4  Q  2
D5  Q  2
E4  Q  3
G4# Q  2
B4  Q  2
A4  Q  3
C5  Q  2
E5  Q  2
A4  H. 3
B4  Q  3
D5  Q  2
G5  Q  2
B4  Q  3
D5  Q  2
G5  Q  2
G5  Q  3
B5  Q  2
D6  Q  2
G5  Q  3
B5  Q  2
D6  Q  2
F5  Q  3
A5  Q  2
C6  Q  2
F5  Q  3
A5  Q  2
C6  Q  2
D5  Q  3
G4# Q  2
B4  Q  2
D5  Q  3
G5# Q  2
B4  Q  2
B4  Q  3
D5  Q  2
G5  Q  2
C6  Q  3
B5  Q  2
A5  Q  2
G5  Q  3
B5  Q  2
D6  Q  2
G5  Q  3
B5  Q  2
D6  Q  2
F5  Q  3
A5  Q  2
C6  Q  2
D5  Q  3
G5# Q  2
B5  Q  2
A5  Q  3
C6  Q  2
E6  Q  2
A5  H  3
