settings
08 1
styles
035 00 005 250 010 080 050
028 -0 005 200 010 040 050
025 00 015 150 010 020 100
020 -0 005 200 010 050 080
melody
S   1600 0
S   1600 0
S   0200 0
G4  0100 2
S   0100 0
D5  0400 0
C5  0200 2
A4# 0200 2
A4  0200 0
G4  0200 2
F4  0600 0
G4  0200 2
A4# 0200 0
A4  0200 2
G4  0200 2
F4  0200 2
G4  0400 2
A4# 0400 0
A4  0200 0
G4  0200 0
F4  0200 0
E4  0200 0
F4  0600 0
G4  0200 0
A4# 0200 0
A4  0200 0
G4  0200 0
F4  0200 0
G4  0400 0
D5  0400 0
C5  0400 0
A4# 0400 0
A4  0800 0
S   0400 0
D5  0100 0
E5  0100 0
F5  0200 0
E5  0100 0
F5  0100 0
D5  0200 0
C5  0100 0
D5  0100 0
A4# 0200 0
A4  0100 0
A4# 0100 0
G4  0200 0
F4  0100 0
G4  0100 0
E4  0200 0
F4  0400 0
S   0200 0
D4  0100 0
E4  0100 0
F4  0100 0
G4  0100 0
A4  0100 0
A4# 0100 0
C5  0100 0
D5  0100 0
E5  0100 0
F5  0100 0
E5  0200 0
D5  0200 0
C5  0200 0
A4# 0200 0
A4  0200 0
G4  0200 0
F4  0200 0
E4  0200 0
F4  0600 0
G4  0200 0
A4# 0200 0
A4  0200 0
G4  0200 0
F4  0200 0
G4  0400 0
A4# 0400 0
A4  0400 0
G4  0400 0
F4# 0400 0
D4  0100 0
E4  0100 0
F4# 0100 0
G4  0100 0
A4  0100 0
G4  0100 0
F4# 0100 0
E4  0100 0
G4  0100 0
F4# 0100 0
G4  0050 0
F4# 0050 0
E4  0050 0
F4# 0050 0
G4  0400 0
A4# 0400 0
A4  0200 0
G4  0200 0
F4  0200 0
E4  0200 0
F4  0600 0
G4  0200 0
A4# 0200 0
A4  0200 0
G4  0200 0
F4  0200 0
G4  0400 0
S   0200 0
G4  0100 0
A4  0100 0
A4# 0100 0
C5  0100 0
D5  0100 0
C5  0100 0
A4# 0100 0
C5  0100 0
D5  0100 0
E5  0100 0
F5  0100 0
E5  0100 0
D5  0100 0
E5  0100 0
F5  0100 0
G5  0100 0
A5  0100 0
A5# 0100 0
A5  0100 0
G5  0100 0
F5# 0100 0
E5  0100 0
G5  0100 0
F5# 0100 0
G5  0050 0
F5# 0050 0
E5  0050 0
F5# 0050 0
G5  0100 0
F5  0100 0
G5  0100 0
A5  0100 0
A5# 0100 0
G5  0100 0
A5  0100 0
A5# 0100 0
A5  0100 0
A5# 0100 0
C6  0100 0
D6  0100 0
C6  0100 0
A5# 0100 0
A5  0100 0
G5  0100 0
F5  0600 0
D5  0100 0
E5  0100 0
F5  0100 0
G5  0100 0
A5  0100 0
A5# 0100 0
C6  0100 0
D6  0100 0
E6  0100 0
F6  0100 0
E6  0100 0
F6  0100 0
E6  0100 0
D6  0100 0
C6  0100 0
D6  0100 0
C6  0100 0
A5# 0100 0
A5  0100 0
A5# 0100 0
A5  0100 0
G5  0100 0
F5  0100 0
G5  0100 0
F5  0100 0
E5  0100 0
F5  0100 0
E5  0100 0
D5  0100 0
E5  0100 0
F5  0100 0
G5  0100 0
A5  0100 0
A5# 0100 0
A5  0100 0
G5  0100 0
F5# 0100 0
E5  0100 0
G5  0100 0
F5# 0100 0
G5  0050 0
F5# 0050 0
E5  0050 0
F5# 0050 0
G5  0100 0
F5  0100 0
G5  0100 0
A5  0100 0
A5# 0100 0
G5  0100 0
A5  0100 0
A5# 0100 0
A5  0100 0
A5# 0100 0
G5  0100 0
A5  0100 0
F5  0100 0
G5  0100 0
E5  0200 0
F5  0400 0
D5  0100 0
E5  0100 0
F5  0100 0
G5  0100 0
A5  0100 0
G5  0100 0
F5# 0100 0
E5  0100 0
G5  0100 0
F5# 0100 0
G5  0050 0
F5# 0050 0
E5  0050 0
F5# 0050 0
G5  0400 0
D5  0400 0
C5  0400 0
A4# 0400 0
A4  0400 0
D5  0100 0
E5  0100 0
F5# 0100 0
G5  0100 0
A5  0100 0
G5  0100 0
F5# 0100 0
E5  0100 0
G5  0100 0
F5# 0100 0
G5  0050 0
F5# 0050 0
E5  0050 0
F5# 0050 0
G5  0800 0
harmony
G2  0200 1
G3  0200 1
D3  0200 1
G3  0200 1
G2  0200 1
G3  0200 1
D3  0200 1
G3  0200 1
D3  0200 1
D4  0200 1
A3  0200 1
D4  0200 1
D3  0200 1
D4  0200 1
A3  0200 1
D4  0200 1
G2  0200 1
G3  0200 1
D3  0200 1
G3  0200 1
G2  0200 1
G3  0200 1
D3  0200 1
G3  0200 1
D3  0200 1
D4  0200 1
A3  0200 1
D4  0200 1
D3  0200 1
D4  0200 1
A3  0200 1
D4  0200 1
G2  0200 1
G3  0200 1
D3  0200 1
G3  0200 1
G2  0200 1
G3  0200 1
D3  0200 1
G3  0200 1
D3  0200 1
D4  0200 1
A3  0200 1
D4  0200 1
D3  0200 1
D4  0200 1
A3  0200 1
D4  0200 1
G2  0200 1
G3  0200 1
D3  0200 1
G3  0200 1
G2  0200 1
G3  0200 1
D3  0200 1
G3  0200 1
D3  0200 1
D4  0200 1
A3  0200 1
D4  0200 1
D3  0200 1
D4  0200 1
A3  0200 1
D4  0200 1
G2  0200 1
G3  0200 1
D3  0200 1
G3  0200 1
G2  0200 1
G3  0200 1
D3  0200 1
G3  0200 1
D3  0200 1
D4  0200 1
A3  0200 1
D4  0200 1
D3  0200 1
D4  0200 1
A3  0200 1
D4  0200 1
G2  0200 1
G3  0200 1
D3  0200 1
G3  0200 1
G2  0200 1
G3  0200 1
D3  0200 1
G3  0200 1
D3  0200 1
D4  0200 1
A3  0200 1
D4  0200 1
D3  0200 1
D4  0200 1
A3  0200 1
D4  0200 1
G2  0200 1
G3  0200 1
D3  0200 1
G3  0200 1
G2  0200 1
G3  0200 1
D3  0200 1
G3  0200 1
D3  0200 1
D4  0200 1
A3  0200 1
D4  0200 1
D3  0200 1
D4  0200 1
A3  0200 1
D4  0200 1
G2  0200 1
G3  0200 1
D3  0200 1
G3  0200 1
G2  0200 1
G3  0200 1
D3  0200 1
G3  0200 1
D3  0200 1
D4  0200 1
A3  0200 1
D4  0200 1
D3  0200 1
D4  0200 1
A3  0200 1
D4  0200 1
G2  0200 1
G3  0200 1
D3  0200 1
G3  0200 1
G2  0200 1
G3  0200 1
D3  0200 1
G3  0200 1
D3  0200 1
D4  0200 1
A3  0200 1
D4  0200 1
D3  0200 1
D4  0200 1
A3  0200 1
D4  0200 1
G2  0200 1
G3  0200 1
D3  0200 1
G3  0200 1
G2  0200 1
G3  0200 1
D3  0200 1
G3  0200 1
D3  0200 1
D4  0200 1
A3  0200 1
D4  0200 1
D3  0200 1
D4  0200 1
A3  0200 1
D4  0200 1
G2  0200 1
G3  0200 1
D3  0200 1
G3  0200 1
G2  0200 1
G3  0200 1
D3  0200 1
G3  0200 1
D3  0200 1
D4  0200 1
A3  0200 1
D4  0200 1
D3  0200 1
D4  0200 1
A3  0200 1
D4  0200 1
G2  0200 1
G3  0200 1
D3  0200 1
G3  0200 1
G2  0200 1
G3  0200 1
D3  0200 1
G3  0200 1
D3  0200 1
D4  0200 1
A3  0200 1
D4  0200 1
D3  0200 1
D4  0200 1
A3  0200 1
D4  0200 1
G2  0200 1
G3  0200 1
D3  0200 1
G3  0200 1
G2  0200 1
G3  0200 1
D3  0200 1
G3  0200 1
D3  0200 1
D4  0200 1
A3  0200 1
D4  0200 1
D3  0200 1
D4  0200 1
A3  0200 1
D4  0200 1
G2  0200 1
G3  0200 1
D3  0200 1
G3  0200 1
G2  0200 1
G3  0200 1
D3  0200 1
G3  0200 1
D3  0200 1
D4  0200 1
A3  0200 1
D4  0200 1
D3  0200 1
D4  0200 1
A3  0200 1
D4  0200 1
